<mxfile host="app.diagrams.net" modified="2021-08-31T02:19:05.642Z" agent="5.0 (Windows NT 10.0; Win64; x64) AppleWebKit/537.36 (KHTML, like Gecko) Chrome/92.0.4515.159 Safari/537.36" etag="puzC6k7kpxHzjKRU-N8C" version="15.0.3" type="github">
  <diagram id="ycHtHQ43YZ_406mhdBBK" name="Page-1">
    <mxGraphModel dx="980" dy="654" grid="1" gridSize="10" guides="1" tooltips="1" connect="1" arrows="1" fold="1" page="1" pageScale="1" pageWidth="827" pageHeight="1169" math="0" shadow="0">
      <root>
        <mxCell id="0" />
        <mxCell id="1" parent="0" />
        <mxCell id="pPenF1Cklaa-wZZq8Iaf-7" value="" style="rounded=0;whiteSpace=wrap;html=1;" vertex="1" parent="1">
          <mxGeometry x="60" y="70" width="660" height="390" as="geometry" />
        </mxCell>
        <mxCell id="5lPcbhs3zbtfa8UQFrJL-1" value="&amp;nbsp;" style="rounded=0;whiteSpace=wrap;html=1;" parent="1" vertex="1">
          <mxGeometry x="200" y="250" width="360" height="60" as="geometry" />
        </mxCell>
        <mxCell id="pPenF1Cklaa-wZZq8Iaf-2" value="" style="rounded=0;whiteSpace=wrap;html=1;" vertex="1" parent="1">
          <mxGeometry x="320" y="360" width="120" height="60" as="geometry" />
        </mxCell>
        <mxCell id="pPenF1Cklaa-wZZq8Iaf-3" value="&#xa;&#xa;&lt;h3&gt;complex_condition_config_id&lt;/h3&gt;&#xa;&#xa;" style="ellipse;whiteSpace=wrap;html=1;" vertex="1" parent="1">
          <mxGeometry x="220" y="110" width="340" height="90" as="geometry" />
        </mxCell>
      </root>
    </mxGraphModel>
  </diagram>
</mxfile>
